<?xml version="1.0" encoding="UTF-8"?>
<svg id="Layer_1" data-name="Layer 1" xmlns="http://www.w3.org/2000/svg" viewBox="0 0 487 456.71">
  <defs>
    <style>
      .cls-1 {
        fill: #333;
      }

      .cls-2 {
        fill: #ff1d25;
      }
    </style>
  </defs>
  <path class="cls-1" d="m129,196.71c2.33,2.67,4.67,5.33,7,8l14-14-35-35-13,13c2.33,2.67,4.67,5.33,7,8L4,281.71c-1.33,7.67-2.67,15.33-4,23,7.67-.67,15.33-1.33,23-2,35.33-35.33,70.67-70.67,106-106Z"/>
  <path class="cls-1" d="m137,138.71l30.37,30.37h6.27l17.37-17.37c-.67-3.67-1.33-7.33-2-11,2.84-3.53,7.1-8.5,12-13,1.66-1.52,3.64-3.22,6-3,2.14.2,5,2,5,2h5c4.33-4.33,8.67-8.67,13-13,22.67,22.67,45.33,45.33,68,68,.33,3.33.67,6.67,1,10,36.33,38,72.67,76,109,114,26.33.33,52.67.67,79,1-51.33-49.67-102.67-99.33-154-149h-12c-22.33-22.67-44.67-45.33-67-68,3.33-3.33,6.67-6.67,10-10,.45-.67,1-1.72,1-3,0-1.49-.74-2.58-1-3-1.44-2.29-1.67-5.07-2-9-.17-2.01.01-5.62,4-12,5.46-8.73,13.06-14.66,19-19,10.1-7.38,17.69-12.93,30-19,16.09-7.93,24.27-8.88,24-11-.44-3.51-23.54-5.75-46-1-19.69,4.16-33.82,12.62-41,17-7.42,4.52-14.21,9.56-27,21-12.12,10.84-28.12,26.09-46,46-.38.65-.89,1.68-1,3-.16,1.89.59,2.96,1,5,0,0,.36,1.8,0,5-.44,3.9-5.61,10.01-14,15-1.89.22-4.28.31-7,0-1.9-.22-3.58-.59-5-1-5.67,5.67-11.33,11.33-17,17-.29.44-1.2,1.94-1,4,.22,2.29,1.65,3.68,2,4Z"/>
  <rect class="cls-2" x="180.5" y="230.21" width="44" height="44"/>
  <rect class="cls-2" x="235.5" y="230.21" width="44" height="44"/>
  <rect class="cls-2" x="235.5" y="285.21" width="44" height="44"/>
  <rect class="cls-2" x="180.5" y="285.21" width="44" height="44"/>
  <path class="cls-2" d="m59,289.71c9.33-9,18.67-18,28-27,.33,55,.67,110,1,165h283v-135l29,29c.33,45,.67,90,1,135H59v-167Z"/>
</svg>